<mxfile host="app.diagrams.net" modified="2021-10-13T19:21:39.101Z" agent="5.0 (Macintosh; Intel Mac OS X 10_15_7) AppleWebKit/537.36 (KHTML, like Gecko) Chrome/94.0.4606.81 Safari/537.36" etag="NewRkpQfMQd2dT1fLLMG" version="15.5.2" type="github">
  <diagram id="Atg6jaX2FserM25Iooo6" name="Page-1">
    <mxGraphModel dx="1186" dy="654" grid="1" gridSize="10" guides="1" tooltips="1" connect="1" arrows="1" fold="1" page="1" pageScale="1" pageWidth="850" pageHeight="1100" math="0" shadow="0">
      <root>
        <mxCell id="0" />
        <mxCell id="1" parent="0" />
        <mxCell id="JhqySQ_aaDsHSltOe3lZ-2" value="" style="strokeWidth=2;html=1;shape=mxgraph.flowchart.database;whiteSpace=wrap;fillColor=#fff2cc;gradientColor=#ffd966;strokeColor=#d6b656;" vertex="1" parent="1">
          <mxGeometry x="365" y="580" width="100" height="60" as="geometry" />
        </mxCell>
        <mxCell id="JhqySQ_aaDsHSltOe3lZ-4" value="short.url" style="rounded=1;whiteSpace=wrap;html=1;fillColor=#d5e8d4;strokeColor=#82b366;gradientColor=#ffffff;fontStyle=1" vertex="1" parent="1">
          <mxGeometry x="357.5" y="160" width="120" height="60" as="geometry" />
        </mxCell>
        <mxCell id="JhqySQ_aaDsHSltOe3lZ-5" value="" style="rhombus;whiteSpace=wrap;html=1;fillColor=#f8cecc;strokeColor=#b85450;gradientColor=#ffffff;" vertex="1" parent="1">
          <mxGeometry x="330" y="330" width="170" height="140" as="geometry" />
        </mxCell>
        <mxCell id="JhqySQ_aaDsHSltOe3lZ-6" value="" style="endArrow=classic;html=1;rounded=0;entryX=0.5;entryY=1;entryDx=0;entryDy=0;" edge="1" parent="1" source="JhqySQ_aaDsHSltOe3lZ-5" target="JhqySQ_aaDsHSltOe3lZ-4">
          <mxGeometry width="50" height="50" relative="1" as="geometry">
            <mxPoint x="400" y="460" as="sourcePoint" />
            <mxPoint x="450" y="410" as="targetPoint" />
          </mxGeometry>
        </mxCell>
        <mxCell id="JhqySQ_aaDsHSltOe3lZ-9" value="" style="endArrow=classic;startArrow=classic;html=1;rounded=0;entryX=0.5;entryY=1;entryDx=0;entryDy=0;exitX=0.5;exitY=0;exitDx=0;exitDy=0;exitPerimeter=0;" edge="1" parent="1" source="JhqySQ_aaDsHSltOe3lZ-2" target="JhqySQ_aaDsHSltOe3lZ-5">
          <mxGeometry width="50" height="50" relative="1" as="geometry">
            <mxPoint x="419" y="560" as="sourcePoint" />
            <mxPoint x="430" y="500" as="targetPoint" />
          </mxGeometry>
        </mxCell>
        <mxCell id="JhqySQ_aaDsHSltOe3lZ-10" value="url generation engine" style="text;html=1;resizable=0;autosize=1;align=center;verticalAlign=middle;points=[];fillColor=none;strokeColor=none;rounded=0;fontStyle=1" vertex="1" parent="1">
          <mxGeometry x="345" y="390" width="140" height="20" as="geometry" />
        </mxCell>
        <mxCell id="JhqySQ_aaDsHSltOe3lZ-11" value="Darabase" style="text;html=1;resizable=0;autosize=1;align=center;verticalAlign=middle;points=[];fillColor=none;strokeColor=none;rounded=0;fontStyle=1" vertex="1" parent="1">
          <mxGeometry x="380" y="610" width="70" height="20" as="geometry" />
        </mxCell>
        <mxCell id="JhqySQ_aaDsHSltOe3lZ-14" style="edgeStyle=orthogonalEdgeStyle;rounded=0;orthogonalLoop=1;jettySize=auto;html=1;exitX=0.5;exitY=0;exitDx=0;exitDy=0;exitPerimeter=0;entryX=0;entryY=0.5;entryDx=0;entryDy=0;" edge="1" parent="1" source="JhqySQ_aaDsHSltOe3lZ-13" target="JhqySQ_aaDsHSltOe3lZ-5">
          <mxGeometry relative="1" as="geometry" />
        </mxCell>
        <mxCell id="JhqySQ_aaDsHSltOe3lZ-13" value="USER INPUT" style="html=1;outlineConnect=0;whiteSpace=wrap;fillColor=#dae8fc;shape=mxgraph.archimate.business;busType=function;gradientColor=#7ea6e0;strokeColor=#6c8ebf;" vertex="1" parent="1">
          <mxGeometry x="70" y="440" width="100" height="75" as="geometry" />
        </mxCell>
      </root>
    </mxGraphModel>
  </diagram>
</mxfile>
